# xmcd
#
# Track frame offsets:
#	150
#	13367
#	27830
#	43367
#	56110
#	68905
#	80322
#	93405
#	101097
#	111142
#	121980
#	130160
#	139680
#	157175
#	165212
#	174860
#	183060
#	192890
#	201542
#	215685
#	223687
#	237237
#	249750
#	260122
#	269790
#	282720
#	297667
#	308537
#	317750
#	331415
#	341557
#
# Disc length: 4679 seconds
#
# Revision: 1
# Processed by: cddbd v1.5.2PL0 Copyright (c) Steve Scherf et al.
# Submitted via: audiograbber 1.83.01
#
DISCID=e312451f
DTITLE=The Easy Riders - Marianne Vol. 4
DYEAR=1900
DGENRE=Blues
TTITLE0=Brother Simon And Sister Mary (& Eliza)
TTITLE1=Eliza's World
TTITLE2=Standing In The Garden (&Eliza)
TTITLE3=The Wind Is A Lover
TTITLE4=Point The Way To My Home
TTITLE5=Sip The Morning Dew
TTITLE6=How Many Yesterdays
TTITLE7=Charlie's Inn
TTITLE8=Coney Island
TTITLE9=Brother Simon And Sister Mary (Take 1) (& Eliza)
TTITLE10=Ten Men From Tennessee
TTITLE11=Deerfoot Dan
TTITLE12=Sam Hall - Nellie
TTITLE13=Maggie Gonzales
TTITLE14=Along Comes Me
TTITLE15=900 Miles
TTITLE16=Bachelor's Boy
TTITLE17=Jeb Jones' Daughter
TTITLE18=See All The People
TTITLE19=Billy Goat Hill
TTITLE20=Man About Town
TTITLE21=Ta Pedia Tou Pirea (Never On Sunday)
TTITLE22=Marianne
TTITLE23=Pajarillo Barranqueno
TTITLE24=Toro
TTITLE25=Greenfields
TTITLE26=Wabash Cannon Ball
TTITLE27=Run, Come See Jerusalem
TTITLE28=Adieu Cherie
TTITLE29=Dead Eye Sam
TTITLE30=Devil Cat
EXTD=
EXTT0=
EXTT1=
EXTT2=
EXTT3=
EXTT4=
EXTT5=
EXTT6=
EXTT7=
EXTT8=
EXTT9=
EXTT10=
EXTT11=
EXTT12=
EXTT13=
EXTT14=
EXTT15=
EXTT16=
EXTT17=
EXTT18=
EXTT19=
EXTT20=
EXTT21=
EXTT22=
EXTT23=
EXTT24=
EXTT25=
EXTT26=
EXTT27=
EXTT28=
EXTT29=
EXTT30=
PLAYORDER=
